<?xml version="1.0" encoding="utf-8"?>
<!-- Generator: Adobe Illustrator 16.0.0, SVG Export Plug-In . SVG Version: 6.00 Build 0)  -->
<!DOCTYPE svg PUBLIC "-//W3C//DTD SVG 1.0//EN" "http://www.w3.org/TR/2001/REC-SVG-20010904/DTD/svg10.dtd">
<svg fill="#fff" version="1.0" id="Layer_1" xmlns="http://www.w3.org/2000/svg" xmlns:xlink="http://www.w3.org/1999/xlink" x="0px" y="0px"
	 width="100px" height="100px" viewBox="0 0 100 100" enable-background="new 0 0 100 100" xml:space="preserve">
<path d="M83.333,10H16.667C13.001,10,10,13.001,10,16.667v66.666C10,86.999,13.001,90,16.667,90h66.666
	C86.999,90,90,86.999,90,83.333V16.667C90,13.001,86.999,10,83.333,10z M83.333,83.333H16.667V16.667h66.666V83.333z"/>
<path d="M40,23.333H30l-6.667,33.334H30L31.335,50h7.33L40,56.667h6.667L40,23.333z M32.666,43.333L35,31.667l2.334,11.666H32.666z"
	/>
<path d="M76.667,56.667V50h-8.334v-6.667h-6.666V50h-8.334v6.667h13.334C66.667,64.03,60.696,70,53.333,70v6.667
	c5.173,0,9.87-1.979,13.418-5.202l5.202,5.202l4.714-4.714l-5.749-5.752c1.54-2.832,2.415-6.081,2.415-9.534H76.667z"/>
</svg>
